<?xml version="1.0" standalone="no"?> <!DOCTYPE svg PUBLIC "-//W3C//DTD SVG 20010904//EN" "http://www.w3.org/TR/2001/REC-SVG-20010904/DTD/svg10.dtd"> <svg version="1.0" xmlns="http://www.w3.org/2000/svg" width="469.000000pt" height="532.000000pt" viewBox="0 0 469.000000 532.000000" preserveAspectRatio="xMidYMid meet"> <g transform="translate(0.000000,532.000000) scale(0.100000,-0.100000)" fill="#2a1006" stroke="none"> <path d="M3118 5085 c-16 -9 -28 -22 -28 -30 0 -19 4 -19 42 1 71 37 162 2 194 -73 17 -39 34 -43 34 -7 0 16 -16 42 -44 72 -42 44 -46 46 -107 49 -44 2 -72 -1 -91 -12z"/> <path d="M3528 4943 c-42 -17 -55 -50 -15 -38 64 19 91 22 121 14 40 -11 79 -48 96 -90 15 -34 36 -33 32 1 -4 37 -51 90 -96 111 -50 22 -89 23 -138 2z"/> <path d="M3137 4910 c-70 -21 -152 -118 -223 -263 l-39 -78 -100 -49 c-55 -26 -129 -70 -165 -98 -464 -353 -678 -1135 -440 -1613 64 -130 167 -238 275 -289 138 -65 366 -95 523 -70 316 51 604 267 776 582 80 149 126 299 147 487 31 275 -66 591 -239 783 -37 41 -37 41 -12 163 6 33 10 99 8 146 -3 97 -22 136 -72 154 -50 17 -130 -46 -203 -162 -25 -40 -49 -73 -54 -73 -4 0 -24 8 -44 17 l-36 17 7 112 c8 130 -4 193 -44 224 -27 22 -25 22 -65 10z m53 -43 c0 -7 -18 -37 -40 -66 -22 -29 -61 -96 -87 -148 l-47 -94 32 -58 c18 -32 32 -61 32 -64 0 -3 -24 -13 -52 -22 -29 -10 -58 -22 -65 -29 -19 -18 -51 -148 -64 -259 -7 -56 -15 -105 -19 -109 -15 -19 -49 25 -60 77 -40 191 133 659 282 763 35 24 88 30 88 9z m396 -141 c3 -8 -10 -36 -30 -61 -19 -26 -58 -92 -87 -148 l-52 -102 32 -57 c18 -32 29 -62 26 -67 -3 -5 -27 -17 -54 -26 -27 -9 -54 -21 -59 -28 -18 -22 -52 -162 -64 -264 -13 -108 -20 -119 -54 -82 -17 19 -19 37 -18 153 1 126 2 135 43 256 68 204 153 352 234 411 44 32 75 37 83 15z m-305 -212 c17 -8 28 -21 26 -27 -77 -188 -102 -274 -118 -412 -8 -72 -15 -93 -32 -108 -59 -47 -139 -94 -221 -129 -290 -124 -379 -188 -476 -347 -134 -217 -157 -505 -64 -785 15 -43 33 -90 40 -104 21 -42 1 -48 -48 -14 -141 98 -235 272 -273 504 -75 462 149 1031 515 1307 81 61 206 129 217 118 3 -4 -5 -43 -18 -88 l-23 -81 -71 -48 c-76 -51 -195 -165 -195 -187 0 -26 24 -12 76 46 45 49 149 131 167 131 3 0 5 -48 5 -108 -1 -107 5 -135 40 -174 9 -11 29 -18 52 -18 94 0 236 202 315 447 18 54 35 93 43 93 7 0 27 -7 43 -16z m288 -436 c63 -293 8 -641 -150 -949 -150 -290 -371 -503 -619 -595 -59 -21 -93 -27 -156 -28 -115 0 -133 10 -171 97 -79 176 -98 264 -98 452 0 129 3 160 23 225 38 120 99 226 176 308 82 86 134 118 317 195 74 32 170 80 212 108 75 50 97 55 97 20 0 -24 48 -71 72 -71 64 0 133 66 217 208 30 50 57 89 62 87 4 -3 12 -29 18 -57z"/> <path d="M2408 3948 c-44 -66 -98 -167 -98 -185 0 -35 29 -5 64 65 21 42 51 93 67 113 32 40 37 59 16 59 -8 0 -30 -24 -49 -52z"/> <path d="M3396 3448 c-8 -13 -22 -43 -31 -68 -9 -25 -38 -86 -64 -135 -143 -268 -327 -457 -555 -572 -63 -31 -85 -48 -78 -55 8 -8 33 0 88 26 244 116 452 337 595 633 60 124 81 181 69 188 -5 3 -16 -5 -24 -17z"/> <path d="M702 3290 c-108 -28 -175 -71 -287 -184 -118 -119 -182 -220 -231 -363 -205 -604 239 -1356 878 -1487 99 -20 277 -21 376 0 196 40 423 182 518 325 228 344 81 952 -330 1365 -284 285 -641 418 -924 344z m313 -25 c349 -74 690 -362 881 -744 97 -194 135 -349 136 -549 0 -124 -19 -217 -63 -308 -53 -112 -195 -244 -261 -244 -40 0 -95 30 -155 84 -64 58 -108 125 -141 218 -23 65 -26 88 -26 208 0 98 6 166 22 250 29 149 29 289 2 389 -90 325 -378 558 -772 625 -46 8 -48 20 -8 41 86 44 254 58 385 30z m-267 -130 c301 -77 525 -268 619 -526 25 -67 27 -87 28 -209 0 -100 -6 -169 -24 -265 -30 -168 -26 -323 12 -427 45 -125 125 -226 225 -283 18 -11 31 -24 29 -30 -6 -17 -204 -11 -282 9 -193 51 -390 169 -555 336 -220 221 -373 502 -425 779 -19 105 -19 294 0 386 21 100 77 209 125 244 39 28 39 28 112 16 40 -7 102 -21 136 -30z"/> <path d="M1820 2392 c0 -5 7 -27 16 -48 69 -163 71 -404 4 -591 -34 -94 -34 -93 -17 -93 18 0 49 76 78 190 36 145 18 388 -38 507 -17 34 -43 56 -43 35z"/> <path d="M531 3012 c-41 -77 -60 -368 -32 -512 24 -127 91 -299 120 -308 17 -6 14 6 -27 103 -84 202 -102 450 -47 659 16 61 7 98 -14 58z"/> <path d="M690 2047 c0 -58 236 -305 264 -277 8 8 1 18 -24 37 -58 44 -134 125 -179 191 -40 60 -61 76 -61 49z"/> <path d="M3389 2275 c-605 -115 -1139 -676 -1139 -1197 0 -156 54 -285 174 -415 129 -138 269 -226 435 -272 436 -121 946 69 1241 462 80 108 150 252 187 387 22 81 26 116 27 240 1 122 -3 157 -22 223 -32 110 -71 193 -143 298 -95 139 -183 207 -329 256 -95 32 -311 41 -431 18z m406 -42 c82 -27 150 -63 212 -112 54 -43 133 -152 133 -184 0 -39 -47 -115 -109 -177 -70 -70 -141 -110 -237 -135 -85 -22 -270 -20 -396 5 -57 12 -142 23 -189 27 -317 22 -623 -188 -763 -524 -33 -78 -70 -205 -81 -276 -4 -23 -11 -37 -18 -34 -24 7 -59 129 -64 223 -15 252 106 528 331 762 197 204 445 353 701 420 113 30 124 31 280 27 104 -2 155 -8 200 -22z m381 -399 c19 -99 -25 -296 -101 -450 -233 -478 -789 -826 -1279 -801 -120 6 -215 27 -286 62 -52 27 -134 110 -127 129 3 8 8 35 12 62 27 197 119 406 239 540 134 149 311 239 496 251 66 4 117 -1 229 -21 209 -37 279 -41 386 -21 101 19 169 44 234 89 58 39 128 112 152 159 24 46 36 47 45 1z"/> <path d="M3435 2114 c-54 -7 -155 -36 -161 -45 -13 -22 11 -24 78 -6 51 13 106 19 183 19 100 0 120 -3 219 -36 124 -42 116 -40 116 -22 0 15 -76 49 -161 71 -56 15 -221 27 -274 19z"/> <path d="M3547 991 c-106 -70 -263 -149 -371 -186 -173 -59 -395 -81 -540 -54 -41 7 -62 7 -69 0 -19 -19 46 -33 180 -39 199 -7 355 24 561 111 123 52 341 186 350 215 7 24 -24 11 -111 -47z"/> </g> </svg>