<svg version="1.0" xmlns="http://www.w3.org/2000/svg"  width="600.000000pt" height="148.000000pt" viewBox="0 0 600.000000 148.000000"  preserveAspectRatio="xMidYMid meet"> <g transform="translate(0.000000,148.000000) scale(0.100000,-0.100000)" fill="#000000" stroke="none"> <path d="M4882 1002 c-39 -25 -53 -42 -34 -42 15 0 93 58 85 63 -5 3 -28 -6 -51 -21z"/> <path d="M1562 929 c-125 -21 -202 -95 -202 -193 0 -103 76 -172 213 -196 132 -23 275 24 323 105 46 80 24 182 -51 234 -69 47 -184 67 -283 50z m147 -124 c60 -31 61 -109 2 -140 -64 -33 -162 -10 -182 42 -13 35 5 79 40 98 34 19 105 19 140 0z"/> <path d="M2731 929 c-29 -5 -76 -21 -103 -36 -131 -71 -132 -244 -1 -315 127 -69 314 -55 406 31 41 37 57 73 57 126 0 102 -77 173 -211 194 -72 12 -73 12 -148 0z m148 -124 c60 -31 61 -109 2 -140 -90 -46 -205 11 -185 92 14 54 119 82 183 48z"/> <path d="M4769 930 c-71 -12 -140 -51 -172 -97 -23 -32 -28 -50 -28 -96 0 -91 52 -155 154 -187 61 -19 72 -81 40 -218 -15 -66 -15 -74 -1 -88 13 -13 20 -14 38 -4 18 10 21 17 16 43 -11 56 -19 195 -12 222 6 22 11 26 39 23 l32 -3 3 -72 c3 -65 5 -73 22 -73 22 0 24 6 20 68 -3 57 19 87 83 116 131 57 165 190 75 291 -52 60 -198 95 -309 75z m150 -125 c31 -15 41 -33 41 -70 0 -57 -39 -85 -120 -85 -44 0 -56 5 -81 29 -16 16 -29 40 -29 53 0 30 26 67 54 78 34 14 104 11 135 -5z"/> <path d="M378 916 c-96 -26 -151 -92 -151 -181 0 -116 83 -181 244 -192 113 -8 197 16 255 72 45 42 55 69 31 78 -8 3 -39 8 -70 12 -51 7 -59 5 -87 -18 -84 -71 -235 -19 -205 70 21 61 128 80 177 31 20 -20 24 -20 89 -8 82 14 86 25 31 80 -63 64 -197 88 -314 56z"/> <path d="M2125 921 c-59 -14 -108 -45 -137 -85 -27 -37 -29 -47 -26 -106 4 -83 29 -119 106 -157 51 -25 67 -28 162 -28 127 0 182 18 234 76 57 62 51 72 -48 84 -54 7 -59 6 -87 -21 -26 -25 -38 -29 -87 -28 -91 0 -137 44 -112 109 21 55 126 69 172 23 20 -20 24 -20 89 -8 38 6 72 16 75 21 3 6 -14 29 -38 53 -65 66 -192 93 -303 67z"/> <path d="M810 735 l0 -185 80 0 79 0 3 68 3 67 88 3 87 3 0 -71 0 -70 80 0 80 0 0 185 0 185 -80 0 -80 0 0 -60 0 -60 -90 0 -90 0 0 60 0 60 -80 0 -80 0 0 -185z"/> <path d="M3140 735 l0 -185 195 0 196 0 -3 58 -3 57 -112 3 -113 3 0 124 0 125 -80 0 -80 0 0 -185z"/> <path d="M3711 897 c-5 -13 -46 -97 -90 -185 l-81 -162 85 0 c80 0 86 1 96 24 21 45 171 45 191 0 11 -22 17 -24 95 -24 45 0 83 2 83 4 0 2 -38 84 -85 182 l-85 179 -100 3 c-98 3 -100 2 -109 -21z m128 -119 c38 -90 39 -88 -18 -88 -28 0 -51 4 -51 9 0 13 42 121 47 121 2 0 12 -19 22 -42z"/> <path d="M4100 865 l0 -55 70 0 70 0 0 -130 0 -131 81 3 81 3 1 125 2 125 68 3 67 3 0 54 0 55 -220 0 -220 0 0 -55z"/> <path d="M5170 735 l0 -185 80 0 79 0 3 107 3 106 83 -106 84 -107 99 0 99 0 0 185 0 185 -75 0 -75 0 0 -98 c0 -54 -3 -101 -6 -105 -3 -3 -43 41 -88 98 l-81 104 -102 1 -103 0 0 -185z"/> </g> </svg>