<svg version="1.0" xmlns="http://www.w3.org/2000/svg"  width="960.000000pt" height="960.000000pt" viewBox="0 0 960.000000 960.000000"  preserveAspectRatio="xMidYMid meet"> <g transform="translate(0.000000,960.000000) scale(0.100000,-0.100000)" fill="#3a1a0a" stroke="none"> <path d="M4540 7744 c-277 -47 -460 -168 -549 -361 l-24 -53 -23 0 -22 0 -98 101 c-143 146 -194 180 -389 258 -11 4 -51 16 -90 26 l-70 17 -175 5 -175 5 -70 -11 c-159 -23 -267 -48 -315 -72 -8 -4 -53 -25 -100 -47 -87 -42 -107 -55 -192 -131 -83 -75 -179 -229 -195 -313 -3 -18 -9 -37 -13 -43 -30 -40 -43 -341 -22 -489 13 -89 83 -287 112 -316 3 -3 19 -25 35 -50 44 -66 172 -189 473 -455 19 -16 65 -60 103 -96 119 -116 311 -238 376 -239 10 -1 29 -7 43 -15 14 -8 45 -14 70 -15 l46 0 22 -16 22 -15 -2 -577 -3 -577 22 -41 c12 -22 51 -67 87 -99 95 -84 92 -90 -44 -85 l-76 2 -54 -18 c-30 -10 -79 -34 -110 -54 -30 -20 -61 -40 -67 -44 l-13 -7 -48 45 c-27 25 -68 53 -92 61 l-43 15 -237 0 -238 0 -61 -31 -60 -31 -38 -56 -38 -57 0 -731 0 -732 18 -19 c9 -11 17 -24 17 -30 0 -11 23 -32 245 -230 61 -53 161 -149 224 -213 63 -63 124 -120 135 -127 23 -13 25 -14 76 -33 l35 -12 224 0 224 1 45 13 45 13 39 39 c22 22 46 52 54 68 8 15 19 28 24 28 27 0 63 -25 115 -79 32 -34 65 -61 75 -61 9 0 21 -5 26 -10 l11 -11 229 -1 229 0 45 13 c93 27 170 110 170 184 0 86 36 82 134 -14 127 -123 218 -160 439 -177 l78 -7 76 13 c80 14 118 30 174 73 20 15 48 27 62 27 l26 0 38 -36 c21 -20 58 -44 82 -55 l44 -20 236 4 236 3 38 11 c45 13 77 40 120 102 l30 44 -2 566 c-1 312 -6 582 -11 601 -18 72 -23 87 -52 149 -41 89 -68 122 -178 214 -92 77 -118 112 -106 142 l5 15 97 0 96 0 34 16 c68 32 104 88 125 191 17 84 23 84 120 -11 98 -96 133 -123 213 -165 l59 -31 32 0 c17 0 58 -5 91 -11 l59 -11 90 12 90 13 55 30 c30 16 62 35 70 42 8 7 25 16 36 19 l22 7 58 -50 c31 -27 71 -52 88 -56 54 -11 266 -14 420 -5 l149 9 46 39 c25 21 56 56 68 78 l23 39 0 716 0 717 -18 40 c-20 45 -64 91 -192 203 -69 60 -323 302 -389 371 -9 10 -44 31 -76 48 l-60 30 -246 0 -245 0 -40 -19 c-45 -22 -63 -39 -105 -98 -33 -47 -51 -53 -71 -25 -24 32 -113 104 -148 121 l-35 16 -100 5 -100 5 -3 23 c-2 13 4 41 12 63 9 22 16 58 16 82 1 23 7 69 15 102 l15 60 -1 125 0 125 -14 65 c-8 36 -15 90 -15 120 l-1 55 -14 19 c-8 11 -15 28 -15 39 0 10 -6 31 -14 45 -7 15 -23 48 -35 74 -39 83 -125 180 -326 366 -33 30 -126 119 -206 196 -221 214 -304 262 -524 303 l-80 15 -240 3 -240 4 -85 -15z m-1430 -134 l11 -20 30 0 c16 0 42 -9 57 -19 l27 -19 58 -6 57 -6 0 13 c0 8 9 22 20 32 l19 17 18 -8 18 -8 -27 -4 c-16 -2 -28 -8 -28 -14 0 -5 -10 -24 -22 -41 l-22 -31 20 8 c10 5 29 11 41 13 12 3 25 14 28 24 4 10 13 19 21 19 l15 0 -12 -22 c-7 -13 -23 -40 -35 -60 -30 -47 -17 -56 26 -17 l33 31 34 -5 34 -6 6 15 c3 7 12 14 20 14 l15 0 -27 -31 -26 -32 11 -11 10 -10 19 11 c10 7 28 9 40 6 l21 -5 0 18 0 18 18 -18 17 -18 -12 -5 c-18 -7 -16 -33 2 -33 9 0 18 7 21 15 9 22 33 18 43 -7 5 -13 21 -34 35 -47 85 -80 138 -263 100 -345 l-17 -34 -41 -6 c-23 -3 -149 -6 -281 -7 l-240 -2 -27 11 -27 11 -7 28 c-3 15 -10 43 -16 60 l-9 33 -31 22 c-17 12 -52 25 -77 29 l-46 7 -46 -9 -45 -10 -32 -34 -32 -33 0 -239 0 -238 33 -37 32 -37 50 -14 50 -14 50 14 50 14 33 36 32 36 0 28 0 27 31 26 31 26 252 0 253 0 29 -10 29 -10 18 -31 17 -31 0 -61 0 -62 -20 -59 c-38 -113 -99 -200 -187 -267 -32 -24 -64 -50 -71 -56 -7 -7 -21 -13 -31 -13 -9 0 -21 -4 -27 -9 -5 -6 -45 -24 -89 -42 l-80 -32 -115 -17 -115 -17 -125 8 c-143 9 -242 22 -283 38 -16 6 -40 11 -54 11 -14 0 -37 7 -51 15 -15 8 -53 26 -84 40 -32 15 -76 41 -98 60 -22 19 -49 37 -60 40 -26 8 -25 23 1 51 l22 23 -7 17 -6 16 -15 -12 c-22 -18 -31 -4 -15 24 l13 25 -7 17 -7 17 -8 -9 c-5 -5 -11 -17 -13 -27 -5 -27 -22 -24 -32 6 l-9 26 23 19 23 18 -10 30 -10 29 -21 3 -22 3 0 -19 c0 -11 7 -22 15 -26 15 -5 22 -36 8 -36 -3 0 -19 15 -35 32 l-29 33 16 11 c16 12 21 34 7 34 -13 0 -62 124 -63 160 -1 92 9 229 20 265 7 22 19 76 27 119 8 44 22 92 30 108 l15 28 18 0 c10 0 21 7 25 15 3 8 12 15 21 15 l15 0 0 28 c0 33 9 47 35 56 11 3 31 22 44 42 14 20 36 40 48 45 l24 9 10 29 c6 16 18 32 27 36 l16 6 17 -22 16 -22 19 7 19 8 -22 9 c-13 4 -23 13 -23 18 0 5 -12 12 -26 15 l-25 7 4 12 c2 7 13 13 25 15 l22 3 0 -15 0 -16 20 0 c10 0 23 -6 27 -14 4 -7 27 -17 50 -21 l41 -6 -1 18 -2 18 19 0 c11 0 21 5 23 12 l4 12 -42 3 -42 3 -5 13 -4 12 56 0 c30 0 58 -4 61 -10 8 -13 82 -13 87 0 2 5 27 15 57 23 l54 14 3 16 c1 9 -3 20 -9 24 l-12 8 50 6 c28 3 55 7 62 7 7 1 17 -7 23 -18z m1865 -16 l27 -18 13 17 12 17 29 0 c34 0 48 -8 57 -32 l6 -18 32 0 31 0 25 -20 c33 -25 49 -25 63 1 l11 20 14 -11 14 -11 -6 -17 c-3 -9 -12 -22 -20 -29 l-15 -12 8 -12 7 -12 11 15 c6 8 19 17 29 21 9 3 17 13 17 20 l0 14 30 -6 c35 -7 41 -24 11 -29 -10 -2 -21 -12 -24 -23 l-5 -19 18 0 c10 0 25 6 32 13 20 20 80 48 87 41 3 -4 0 -9 -6 -11 -7 -3 -13 -11 -13 -18 0 -7 -7 -16 -16 -19 -8 -3 -12 -10 -9 -16 10 -16 47 -12 60 7 l12 17 31 -25 c17 -13 31 -28 31 -33 1 -5 17 -33 36 -62 35 -52 59 -119 89 -246 l16 -66 0 -204 0 -203 -15 -55 c-8 -30 -15 -68 -15 -84 0 -15 -23 -75 -51 -133 l-51 -104 -45 -52 c-26 -29 -51 -54 -57 -56 -6 -2 -25 -14 -41 -27 -26 -20 -97 -55 -170 -84 -29 -11 -127 -30 -220 -42 l-80 -10 -212 6 -212 6 -28 11 c-15 6 -46 14 -68 19 -22 4 -56 14 -75 21 -19 6 -48 16 -63 22 -54 19 -196 133 -223 178 -69 120 -104 222 -128 375 l-16 101 1 134 c0 74 4 154 9 179 4 25 13 71 19 103 5 31 21 79 34 106 14 26 28 62 32 80 4 17 15 36 26 41 10 6 20 21 20 33 l1 22 5 -17 c5 -22 23 -23 67 -4 l34 14 7 21 c7 23 25 27 43 9 l12 -12 12 12 12 12 -12 12 c-7 7 -12 20 -12 30 l0 19 34 -34 34 -34 35 -7 c38 -7 70 1 61 15 -3 5 -18 9 -34 9 -16 0 -31 4 -34 8 -7 11 22 52 36 52 6 0 26 14 45 30 18 17 42 30 51 30 10 0 23 5 29 11 12 12 33 4 33 -12 0 -5 -11 -15 -25 -21 -34 -15 -32 -28 5 -28 17 0 30 5 30 10 l0 10 95 0 96 0 25 25 25 25 -7 12 -7 11 80 -5 81 -6 27 -18z m-960 -1816 l47 -33 14 -40 14 -40 -3 -70 -2 -69 17 -4 17 -3 7 28 c22 85 110 213 148 213 7 0 17 5 24 12 19 19 101 37 170 38 184 1 338 -109 371 -265 l7 -30 17 -3 17 -3 0 18 c0 10 6 27 14 38 7 11 16 31 19 45 4 14 32 53 64 87 l58 61 86 26 85 26 62 0 c114 0 229 -42 307 -113 l51 -45 31 -64 c18 -36 38 -91 47 -124 l15 -59 3 -570 3 -570 -23 -33 c-13 -18 -41 -41 -62 -52 l-39 -20 -226 0 -226 0 -37 19 c-95 49 -92 33 -92 615 l0 468 -25 24 -26 24 -29 0 -28 0 -32 -27 -33 -27 3 -475 c4 -572 7 -513 -35 -559 l-34 -39 -39 -11 -39 -12 -150 0 -150 0 -45 20 -44 19 -23 47 -24 47 2 486 2 486 -34 23 c-18 12 -42 22 -52 22 -10 0 -34 -10 -53 -22 l-33 -23 2 -495 3 -495 -17 -33 c-10 -17 -35 -43 -57 -57 l-40 -25 -187 0 -188 0 -59 14 -59 14 -36 36 -36 36 -6 588 -6 587 -13 105 -12 105 14 50 15 49 48 33 47 33 228 0 228 0 47 -32z m2380 11 c22 -6 56 -12 75 -15 l34 -3 40 -40 39 -40 8 -93 c4 -51 8 -264 7 -473 -1 -455 -3 -411 27 -440 l24 -25 41 0 41 0 24 25 25 24 0 438 0 438 15 54 14 54 38 39 37 38 23 0 23 0 -6 -27 c-2 -16 0 -35 5 -43 l10 -15 13 16 13 16 100 -8 c55 -4 156 -8 223 -10 l124 -2 5 -14 c7 -18 32 -17 39 2 l6 16 15 -12 c7 -7 12 -17 10 -23 -2 -6 2 -58 9 -116 l13 -105 7 -570 7 -570 -18 -35 c-9 -19 -33 -52 -53 -72 l-36 -38 -261 0 -260 0 -27 18 c-62 41 -91 108 -86 199 l3 57 -16 4 -16 3 -24 -66 -23 -66 -42 -42 c-40 -41 -64 -55 -147 -91 l-38 -16 -119 0 -119 0 -6 9 c-3 5 -18 12 -35 16 -91 20 -189 99 -237 191 -71 136 -81 230 -87 824 l-6 465 13 37 c13 37 45 74 82 97 l20 12 185 -6 c102 -3 203 -11 225 -16z m-1080 -1833 c98 -21 191 -61 241 -104 l44 -37 45 -90 45 -90 11 -65 12 -65 4 -519 4 -518 -17 -42 c-9 -22 -32 -54 -52 -71 l-36 -30 -259 2 -260 2 -29 28 c-17 15 -39 46 -50 67 l-20 39 7 78 7 79 -16 0 c-9 0 -16 -6 -16 -12 0 -55 -122 -228 -160 -228 -10 0 -20 -7 -24 -15 -3 -8 -15 -15 -26 -15 -12 0 -30 -5 -41 -11 l-20 -10 -131 0 -131 1 -56 16 c-67 20 -72 21 -91 33 -8 4 -31 16 -50 26 -74 38 -153 130 -186 217 l-16 43 -5 126 -5 126 16 54 c9 30 26 75 39 101 l23 47 34 25 c113 82 136 91 318 122 l97 17 145 0 145 0 65 -12 64 -13 13 18 14 19 -5 25 c-3 14 -7 42 -11 63 l-6 37 -27 18 -26 17 -129 0 -130 0 -7 -15 c-5 -8 -14 -29 -20 -47 -16 -42 -11 -41 -262 -45 l-217 -3 -13 13 -13 13 -6 157 -6 157 16 70 15 70 41 44 c22 23 52 52 68 63 l27 19 78 12 77 12 395 -2 395 -2 70 -15z m-1790 0 c106 -11 265 -88 280 -136 3 -11 10 -20 14 -20 4 0 16 -19 26 -42 9 -24 22 -54 28 -68 5 -14 14 -45 18 -70 5 -25 12 -56 15 -70 4 -14 8 -259 10 -545 l4 -520 -16 -52 -15 -52 -37 -27 -36 -28 -261 -1 -260 0 -47 35 -46 35 -8 65 c-4 36 -4 263 -1 506 l6 440 -19 32 -19 31 -26 7 c-14 3 -41 3 -60 0 l-35 -7 -16 -23 -15 -24 2 -474 1 -473 -13 -44 -13 -43 -30 -23 c-17 -13 -42 -28 -56 -33 l-25 -9 -220 7 -220 8 -37 18 c-21 10 -38 22 -38 28 0 5 -8 18 -17 28 l-17 20 24 19 25 19 -14 9 c-8 5 -20 7 -26 5 l-12 -5 -6 138 c-3 76 -6 341 -7 590 l-1 451 9 6 9 5 7 -52 c3 -28 6 -95 6 -146 l0 -95 11 11 12 12 2 73 c1 41 4 78 7 84 3 5 2 31 -2 58 l-7 50 9 34 9 33 14 -11 13 -11 6 19 c4 11 17 31 29 45 l22 25 55 18 c76 24 78 43 3 44 -18 0 -33 5 -33 10 l0 10 69 0 69 0 6 -16 6 -17 18 16 18 17 60 4 c32 2 67 5 77 5 28 2 19 18 -13 25 -16 3 -30 10 -30 15 l0 9 63 -2 c76 -3 105 -17 136 -64 l23 -37 -1 -69 c-1 -38 1 -78 5 -88 l6 -20 23 22 c13 13 27 35 30 51 4 15 13 33 21 40 8 6 14 18 14 26 0 8 24 37 53 64 l52 49 21 0 c12 0 27 7 34 15 7 8 24 15 39 15 14 1 36 6 48 13 24 13 80 14 188 3z"/> <path d="M4675 7158 c-45 -16 -84 -57 -96 -101 l-11 -40 7 -48 c4 -26 13 -53 21 -60 8 -6 14 -15 14 -20 0 -5 12 -28 27 -52 71 -112 90 -143 97 -157 4 -8 20 -39 36 -69 l28 -54 43 -29 42 -28 47 0 c61 0 101 21 136 72 l29 41 -1 57 -1 57 -31 47 c-18 26 -32 49 -32 51 0 4 -127 221 -164 281 l-25 41 -39 11 c-47 14 -86 14 -127 0z"/> <path d="M3454 4755 c0 -148 2 -211 3 -138 2 72 2 194 0 270 -1 76 -3 17 -3 -132z"/> <path d="M4845 3099 c-55 -4 -117 -15 -137 -23 l-37 -16 -17 -56 -16 -55 6 -27 c13 -53 27 -78 54 -94 l27 -16 132 -6 132 -6 6 10 c4 6 7 69 7 140 l1 130 -13 15 c-7 8 -20 14 -29 14 -9 -1 -61 -5 -116 -10z"/> <path d="M2339 3368 c-5 -20 -8 -469 -4 -487 l6 -24 9 9 10 10 2 209 2 210 10 18 11 17 -11 17 c-9 15 -33 30 -35 21z"/> </g> </svg>