<svg version="1.0" xmlns="http://www.w3.org/2000/svg"  width="600.000000pt" height="600.000000pt" viewBox="0 0 600.000000 600.000000"  preserveAspectRatio="xMidYMid meet"> <g transform="translate(0.000000,600.000000) scale(0.100000,-0.100000)" fill="#3a1a0a" stroke="none"> <path d="M2840 5599 c-754 -42 -1468 -428 -1926 -1041 -229 -307 -394 -674 -468 -1043 -57 -288 -63 -663 -15 -955 119 -714 552 -1367 1169 -1762 311 -199 655 -326 1041 -385 173 -27 579 -24 754 5 281 46 503 116 750 237 277 136 485 284 700 500 408 408 656 903 742 1480 25 169 25 563 0 725 -120 768 -522 1401 -1153 1817 -471 310 -1015 454 -1594 422z m-1277 -2064 c228 -48 387 -257 387 -510 l0 -95 -406 0 -407 0 6 -39 c11 -86 67 -158 157 -200 47 -22 68 -26 145 -26 106 1 178 25 244 82 l43 36 76 -77 77 -76 -45 -40 c-47 -41 -151 -100 -210 -119 -180 -57 -425 -17 -555 90 -102 84 -157 180 -182 314 -35 191 18 390 135 510 136 139 330 194 535 150z m1108 -22 c36 -17 85 -49 108 -71 l43 -41 -67 -76 c-37 -41 -71 -75 -74 -75 -4 0 -18 11 -31 24 -50 54 -195 74 -257 36 -55 -33 -54 -99 1 -135 14 -9 85 -38 159 -64 201 -71 268 -115 314 -208 48 -100 35 -227 -35 -318 -105 -139 -391 -185 -607 -99 -69 28 -148 91 -178 142 l-17 30 80 67 80 67 41 -41 c58 -58 133 -84 239 -85 120 0 180 36 180 109 0 52 -41 80 -196 134 -155 53 -192 70 -248 115 -60 49 -88 106 -94 191 -8 131 42 222 156 283 82 44 121 52 238 48 88 -2 109 -6 165 -33z m1007 23 c150 -40 240 -131 261 -266 6 -36 11 -176 11 -312 0 -135 3 -254 6 -262 4 -9 23 -19 45 -22 l39 -7 0 -98 0 -98 -37 -10 c-96 -27 -197 1 -234 63 l-20 35 -56 -40 c-71 -49 -133 -68 -248 -75 -201 -13 -348 55 -411 190 -18 39 -24 68 -24 127 0 87 11 126 53 187 60 88 165 132 389 162 80 10 162 25 181 34 107 44 74 173 -49 192 -110 16 -205 -12 -297 -88 l-47 -39 -73 62 c-39 34 -73 65 -75 69 -1 4 24 34 57 67 63 62 137 106 218 128 65 18 245 18 311 1z m1177 -1 c77 -20 166 -69 224 -121 l46 -43 -79 -79 -78 -80 -51 38 c-138 105 -341 91 -451 -30 -128 -142 -105 -386 47 -488 63 -42 95 -53 167 -59 82 -6 169 20 240 72 l51 37 26 -23 c14 -13 48 -50 76 -83 l51 -58 -44 -39 c-137 -118 -327 -164 -515 -124 -206 44 -373 206 -421 411 -34 143 -2 325 75 437 70 103 206 200 322 231 73 20 240 20 314 1z"/> <path d="M1334 3319 c-79 -23 -173 -113 -188 -181 l-6 -28 275 0 275 0 0 28 c-1 64 -88 159 -168 182 -44 12 -145 12 -188 -1z"/> <path d="M3655 2949 c-22 -10 -94 -24 -159 -33 -138 -18 -201 -44 -230 -94 -16 -29 -17 -39 -7 -72 7 -24 24 -48 44 -62 28 -21 43 -23 137 -23 89 0 111 3 146 22 83 44 118 113 112 222 l-3 57 -40 -17z"/> </g> </svg>