<svg version="1.0" xmlns="http://www.w3.org/2000/svg"  width="320.000000pt" height="320.000000pt" viewBox="0 0 320.000000 320.000000"  preserveAspectRatio="xMidYMid meet"> <g transform="translate(0.000000,320.000000) scale(0.100000,-0.100000)" fill="#3a1a0a" stroke="none"> <path d="M1445 2415 c-14 -13 -25 -33 -25 -43 0 -34 29 -104 76 -184 43 -74 46 -82 52 -175 l6 -98 11 101 c10 87 16 108 48 161 92 152 102 236 30 258 -29 8 -59 -22 -74 -77 l-12 -43 -11 42 c-12 45 -41 83 -63 83 -8 0 -25 -11 -38 -25z"/> <path d="M1167 2162 c-25 -26 -59 -74 -74 -107 -24 -52 -28 -72 -28 -155 0 -89 2 -100 38 -174 69 -145 210 -254 390 -302 66 -18 67 -18 139 5 225 72 374 222 409 413 19 109 -20 234 -103 324 -50 54 -68 57 -38 7 157 -267 66 -504 -255 -665 -44 -22 -83 -45 -86 -50 -4 -7 -9 -7 -13 0 -3 6 -35 24 -70 40 -311 146 -419 382 -291 637 19 38 33 70 32 72 -2 1 -24 -19 -50 -45z"/> <path d="M1242 2095 c-61 -93 -70 -247 -18 -325 61 -92 139 -157 284 -235 l52 -28 43 23 c234 130 327 236 327 377 0 34 -7 84 -16 110 -18 54 -81 147 -70 103 35 -133 31 -205 -14 -297 -35 -70 -107 -141 -182 -179 -27 -14 -58 -34 -69 -45 -18 -18 -22 -19 -32 -6 -7 8 -39 29 -72 48 -112 63 -180 140 -209 239 -20 68 -20 132 0 199 8 29 13 55 11 57 -3 3 -18 -16 -35 -41z"/> <path d="M1349 2057 c-42 -32 -50 -92 -22 -171 22 -59 82 -121 167 -172 l61 -36 53 28 c126 68 193 158 196 261 1 48 -2 57 -27 79 -35 30 -70 31 -108 3 -45 -32 -73 -96 -105 -234 -6 -27 -8 -25 -19 31 -35 165 -127 264 -196 211z"/> <path d="M670 1282 c0 -5 7 -12 15 -16 23 -9 22 -272 -2 -298 -15 -17 -13 -18 48 -18 55 1 62 2 47 14 -14 10 -18 28 -18 75 l0 61 55 0 c46 0 60 4 87 29 43 38 44 89 5 129 -26 25 -34 27 -132 30 -65 3 -105 0 -105 -6z m196 -43 c18 -36 12 -90 -11 -109 -9 -7 -32 -13 -53 -14 l-37 -1 -3 78 -3 77 45 0 c41 0 47 -3 62 -31z"/> <path d="M950 1281 c0 -5 7 -11 15 -15 12 -4 15 -30 15 -147 0 -123 -2 -144 -17 -155 -15 -11 0 -13 105 -14 l122 0 0 35 c0 42 -6 43 -32 10 -16 -21 -28 -25 -69 -25 l-49 0 0 70 c0 55 3 70 15 70 18 0 35 -31 35 -66 0 -17 4 -24 9 -19 10 12 52 148 47 153 -2 2 -15 -8 -29 -22 -15 -14 -38 -26 -52 -26 -24 0 -25 2 -25 70 l0 70 45 0 c36 0 51 -5 69 -25 13 -14 25 -25 28 -25 2 0 2 16 0 35 l-4 35 -114 0 c-63 0 -114 -4 -114 -9z"/> <path d="M1243 1276 c15 -11 17 -32 17 -156 0 -124 -2 -145 -17 -156 -16 -12 -9 -13 47 -13 56 0 63 1 48 13 -14 10 -18 28 -18 70 0 56 0 56 30 56 20 0 34 8 45 24 21 31 72 53 88 37 8 -8 5 -11 -13 -11 -28 -1 -43 -11 -80 -55 l-25 -30 35 32 c62 56 109 41 52 -17 -35 -35 -32 -38 9 -9 l29 20 0 -49 c0 -40 -4 -53 -22 -65 -22 -15 -19 -16 47 -16 66 0 69 1 48 16 -22 15 -23 22 -23 153 0 131 1 138 23 153 21 15 19 16 -40 16 -59 1 -81 -10 -48 -23 10 -4 15 -20 15 -52 0 -40 -2 -45 -17 -38 -33 15 -88 9 -121 -15 l-32 -22 0 65 c0 52 3 66 15 66 8 0 15 5 15 10 0 6 -27 10 -62 10 -55 -1 -61 -2 -45 -14z"/> <path d="M1628 1273 c21 -15 22 -22 22 -134 0 -115 1 -120 28 -149 50 -57 144 -51 182 12 17 28 20 51 20 147 0 97 3 116 18 127 15 12 13 13 -20 14 -21 0 -38 -4 -38 -10 0 -5 5 -10 10 -10 6 0 10 -48 10 -123 0 -115 -1 -125 -22 -144 -34 -30 -56 -35 -87 -19 -41 22 -51 55 -51 172 0 84 3 106 15 110 33 13 11 24 -47 23 -60 0 -62 -1 -40 -16z"/> <path d="M1950 1280 c0 -5 7 -10 15 -10 13 0 15 -23 15 -150 0 -127 -2 -150 -15 -150 -8 0 -15 -4 -15 -10 0 -6 47 -10 120 -10 l120 0 0 37 0 37 -27 -26 c-20 -19 -41 -27 -75 -30 l-48 -3 0 72 c0 57 3 73 15 73 18 0 35 -31 35 -66 0 -17 4 -24 9 -19 11 12 53 146 47 152 -2 2 -15 -7 -29 -21 -15 -14 -38 -26 -52 -26 -24 0 -25 2 -25 70 l0 70 45 0 c37 0 51 -5 71 -27 29 -31 33 -29 27 15 l-5 32 -114 0 c-69 0 -114 -4 -114 -10z"/> <path d="M2248 1273 c21 -15 22 -22 22 -156 0 -121 -2 -142 -17 -153 -16 -12 -13 -13 22 -14 30 0 36 3 27 12 -8 8 -12 53 -12 136 l0 124 23 -29 c13 -15 58 -76 101 -135 42 -60 81 -108 87 -108 5 0 9 66 9 156 0 138 2 158 18 170 15 12 13 13 -20 14 -35 0 -52 -14 -28 -22 7 -2 10 -42 8 -108 l-3 -104 -85 117 -85 117 -45 -1 c-44 0 -44 0 -22 -16z"/> <path d="M677 842 c-10 -10 -17 -26 -17 -35 0 -23 44 -50 70 -42 28 9 25 27 -3 20 -32 -8 -55 18 -36 41 8 10 21 13 36 9 26 -6 32 9 7 19 -26 10 -40 7 -57 -12z"/> <path d="M818 849 c-25 -14 -23 -65 2 -79 47 -25 94 22 65 66 -16 25 -39 30 -67 13z m47 -39 c0 -16 -6 -26 -18 -28 -19 -4 -32 20 -23 44 9 25 41 13 41 -16z"/> <path d="M950 816 c0 -47 14 -69 23 -36 3 12 14 20 27 20 11 0 18 5 15 10 -3 6 -15 10 -26 10 -10 0 -19 5 -19 10 0 6 11 10 25 10 14 0 25 5 25 10 0 6 -16 10 -35 10 -35 0 -35 0 -35 -44z"/> <path d="M1077 853 c-11 -10 -8 -81 4 -88 6 -4 13 2 16 13 3 12 15 23 27 25 l21 4 -22 8 c-28 9 -30 25 -3 25 11 0 20 5 20 10 0 11 -53 14 -63 3z"/> <path d="M1200 810 l0 -50 35 0 c19 0 35 5 35 10 0 6 -11 10 -25 10 -14 0 -25 5 -25 10 0 6 9 10 20 10 11 0 20 5 20 10 0 6 -9 10 -20 10 -11 0 -20 5 -20 10 0 6 11 10 25 10 14 0 25 5 25 10 0 6 -16 10 -35 10 l-35 0 0 -50z"/> <path d="M1330 810 c0 -49 1 -50 29 -50 17 0 33 5 36 10 4 6 -5 10 -19 10 -14 0 -26 5 -26 10 0 6 9 10 20 10 11 0 20 5 20 10 0 6 -9 10 -20 10 -11 0 -20 5 -20 10 0 6 12 10 26 10 14 0 23 4 19 10 -3 6 -19 10 -36 10 -28 0 -29 -1 -29 -50z"/> <path d="M1531 813 c0 -27 3 -42 6 -35 7 17 34 15 47 -4 10 -12 12 -7 13 28 2 45 -8 58 -44 58 -21 0 -23 -5 -22 -47z m48 28 c19 -12 6 -41 -19 -41 -15 0 -20 7 -20 25 0 26 14 31 39 16z"/> <path d="M1678 849 c-26 -15 -23 -65 3 -80 34 -18 69 3 69 40 0 42 -36 62 -72 40z m50 -11 c30 -30 -11 -85 -44 -57 -25 21 -11 69 21 69 6 0 16 -5 23 -12z"/> <path d="M1831 843 c-6 -12 -16 -34 -22 -50 -8 -23 -8 -26 2 -15 18 17 56 15 63 -4 4 -9 9 -14 12 -11 3 3 -6 27 -19 53 -23 45 -25 47 -36 27z m29 -35 c0 -5 -7 -8 -15 -8 -17 0 -18 2 -9 25 5 13 8 14 15 3 5 -7 9 -16 9 -20z"/> <path d="M1943 844 c-6 -16 13 -38 40 -47 21 -7 -5 -28 -26 -22 -17 5 -19 4 -7 -4 23 -16 38 -13 50 10 10 18 8 22 -19 32 -34 13 -36 32 -3 31 12 0 19 3 16 8 -9 14 -44 9 -51 -8z"/> <path d="M2068 853 c6 -2 13 -23 14 -46 1 -41 1 -41 5 -7 2 19 11 41 20 48 14 10 12 12 -18 11 -19 0 -28 -3 -21 -6z"/> <path d="M2180 810 l0 -50 33 1 c30 2 30 2 5 6 -35 5 -39 40 -5 46 l22 4 -22 2 c-33 2 -29 29 5 34 25 4 25 4 -5 6 l-33 1 0 -50z"/> <path d="M2308 843 c-5 -58 -4 -73 3 -73 5 0 9 5 9 10 0 16 21 12 43 -7 19 -17 20 -17 10 1 -8 14 -8 25 0 37 8 13 7 21 -2 33 -18 22 -61 21 -63 -1z m52 -8 c15 -18 5 -35 -21 -35 -14 0 -19 7 -19 25 0 28 21 33 40 10z"/> <path d="M2442 848 c-19 -19 -14 -28 18 -40 38 -13 33 -34 -6 -31 -24 2 -26 0 -11 -8 22 -13 57 -2 57 16 0 8 -14 22 -30 30 -32 17 -31 40 1 32 11 -3 17 -1 13 4 -7 13 -28 11 -42 -3z"/> </g> </svg>