<?xml version="1.0" standalone="no"?> <!DOCTYPE svg PUBLIC "-//W3C//DTD SVG 20010904//EN" "http://www.w3.org/TR/2001/REC-SVG-20010904/DTD/svg10.dtd"> <svg version="1.0" xmlns="http://www.w3.org/2000/svg" width="551.000000pt" height="453.000000pt" viewBox="0 0 551.000000 453.000000" preserveAspectRatio="xMidYMid meet"> <g transform="translate(0.000000,453.000000) scale(0.050000,-0.050000)" fill="#2a1006" stroke="none"> <path d="M4878 8900 c-88 -46 -154 -135 -112 -151 15 -6 56 16 91 48 109 102 235 100 377 -8 103 -79 128 -35 31 55 -114 106 -254 126 -387 56z"/> <path d="M5700 8897 c-76 -46 -118 -93 -119 -132 -1 -36 52 -31 67 6 42 111 270 126 396 27 83 -65 96 -70 96 -31 0 134 -291 221 -440 130z"/> <path d="M4929 8505 c-108 -114 -207 -420 -209 -645 -1 -167 -6 -172 -177 -199 -1353 -213 -2269 -775 -2549 -1565 -11 -30 -21 -29 -112 15 -512 247 -1117 -50 -1368 -671 -227 -560 -159 -1332 165 -1886 l80 -137 -54 -153 c-77 -219 -81 -677 -7 -894 620 -1826 4198 -2760 7152 -1867 657 198 1272 515 1701 876 l160 135 370 11 c530 16 735 84 795 264 64 197 -66 293 -445 330 -287 27 -263 5 -202 187 293 872 -205 1764 -1329 2379 -51 28 -62 45 -53 80 66 275 122 973 93 1167 -127 835 -1068 1475 -2529 1720 -219 37 -211 32 -211 137 0 48 -14 161 -31 251 -152 799 -568 641 -634 -240 -5 -66 -9 -70 -75 -70 l-70 0 -23 170 c-60 439 -167 660 -320 660 -45 0 -81 -17 -118 -55z m193 -47 c253 -253 255 -1385 4 -1662 -41 -46 -136 -50 -119 -5 55 141 125 616 100 679 -5 14 -45 51 -88 81 -99 68 -99 91 4 184 l82 75 -12 202 c-7 111 -30 259 -52 329 -51 164 -16 214 81 117z m826 -4 c289 -290 224 -1694 -79 -1694 -58 0 -57 -7 -18 102 33 95 89 437 89 547 0 59 -13 80 -89 135 -110 81 -111 98 -10 179 44 35 85 83 90 106 14 55 -42 444 -79 552 -44 127 5 164 96 73z m-420 -826 c7 -17 12 -88 12 -157 0 -389 168 -791 330 -791 158 0 330 420 330 805 l0 121 145 -14 c727 -67 1686 -468 2094 -875 452 -450 559 -921 320 -1393 -129 -253 -291 -404 -182 -169 207 445 107 1031 -237 1385 -139 143 -327 280 -385 280 -67 0 -35 -50 70 -108 470 -262 703 -892 532 -1437 -30 -96 -46 -94 -99 10 -831 1649 -5152 1681 -5980 44 -84 -164 -99 -167 -144 -29 -160 495 100 1079 649 1453 128 88 172 147 111 147 -70 0 -433 -305 -585 -490 -277 -340 -365 -838 -212 -1205 65 -156 57 -184 -21 -80 -461 610 -260 1332 514 1845 454 300 1205 564 1773 622 l134 13 10 -87 c56 -494 106 -666 222 -773 214 -198 449 206 451 777 0 61 6 117 13 125 27 26 123 13 135 -19z m29 -1266 c14 -9 23 -38 20 -64 -7 -48 -10 -48 -317 -60 -170 -7 -338 -19 -371 -27 -75 -18 -130 31 -96 86 39 61 684 116 764 65z m-1123 -135 c24 -63 -27 -93 -269 -159 -630 -172 -1019 -414 -1371 -853 -107 -133 -218 -117 -146 21 182 348 760 744 1342 920 370 112 425 120 444 71z m-2764 -117 c55 -7 144 -37 198 -66 l97 -54 7 -315 c4 -178 -1 -315 -11 -315 -10 0 -61 20 -114 44 -368 166 -848 -34 -1040 -435 -483 -1007 538 -2263 1891 -2326 227 -11 271 -18 290 -49 86 -138 -579 -121 -1058 27 -1138 353 -1794 1712 -1351 2801 178 437 631 770 961 707 17 -4 75 -12 130 -19z m5944 -285 c312 -152 704 -666 639 -836 -16 -39 -93 -31 -112 11 -182 403 -354 600 -633 722 -121 53 -148 74 -148 110 0 82 76 80 254 -7z m-1761 -133 c242 -43 458 -183 531 -342 49 -108 -63 -148 -124 -45 -88 148 -290 250 -529 269 -162 13 -211 33 -211 83 0 72 80 81 333 35z m25 -268 c406 -160 193 -383 -383 -400 -449 -13 -717 98 -653 271 61 164 735 248 1036 129z m-4024 -104 c140 -64 128 -40 185 -379 44 -262 48 -244 -75 -314 -233 -133 -592 -394 -692 -505 -56 -62 -62 -56 -109 103 -132 450 -73 1045 111 1117 181 71 397 62 580 -22z m6974 -250 c-161 -1160 -735 -2327 -1550 -3150 -80 -80 -141 -99 -538 -168 -422 -73 -1293 -259 -1562 -333 -88 -25 -96 -23 -200 36 -258 146 -625 263 -986 315 -259 38 -273 46 -502 303 -710 797 -1224 1869 -1379 2878 -17 109 -36 228 -42 264 -16 98 16 79 107 -61 1075 -1662 5481 -1655 6564 11 107 163 121 148 88 -95z m-7780 -25 c-199 -1026 617 -2058 1596 -2020 41 2 78 -1 82 -6 23 -26 154 -264 154 -278 0 -73 -510 -21 -810 82 -987 339 -1590 1434 -1187 2157 133 238 203 266 165 65z m3757 -76 c386 -156 818 -169 1222 -36 145 48 159 49 190 19 144 -144 -660 -302 -1087 -214 -302 63 -550 162 -550 220 0 78 54 81 225 11z m4310 -492 c961 -602 1360 -1471 1022 -2230 l-45 -103 -161 -8 c-199 -11 -189 -24 -106 148 178 368 208 657 102 1006 -51 169 -71 210 -102 210 -36 0 -29 -40 38 -210 109 -281 55 -715 -129 -1044 -78 -137 -40 -127 -644 -176 -220 -18 -458 -40 -530 -50 -71 -9 -215 -28 -320 -41 -104 -13 -346 -45 -537 -72 -191 -28 -352 -45 -358 -39 -5 6 57 85 139 176 128 142 283 334 432 536 337 456 699 1245 860 1873 55 217 31 216 339 24z m-6995 58 c104 -402 233 -758 403 -1113 169 -353 169 -330 -10 -314 -527 48 -1064 408 -1250 840 -37 86 178 280 607 547 239 148 223 146 250 40z m-1214 -1306 c70 -90 71 -93 60 -238 -58 -762 614 -1500 1794 -1971 1915 -765 4769 -578 6236 409 l166 111 208 0 c281 0 279 -23 -20 -242 -2389 -1744 -7358 -1272 -8467 804 -175 326 -227 750 -135 1083 45 160 63 165 158 44z m281 -279 c483 -394 1176 -581 1795 -486 l91 14 78 -104 c135 -181 254 -321 363 -429 139 -138 139 -137 -101 -153 -448 -28 -780 -120 -917 -253 -93 -89 -106 -121 -97 -234 6 -66 -19 -58 -245 78 -774 466 -1146 997 -1117 1592 4 85 18 82 150 -25z m9479 -929 c150 -47 197 -160 112 -269 -89 -113 -295 -163 -668 -160 -143 1 -566 5 -940 8 -1183 12 -2076 -81 -3740 -391 -526 -97 -569 -108 -664 -163 -323 -187 -815 -306 -1051 -253 -568 126 -1175 355 -1227 463 -83 176 51 300 424 395 647 164 1356 82 1976 -229 l197 -99 142 36 c707 178 1309 296 2453 479 261 42 1129 142 1660 191 370 34 1209 29 1326 -8z m-1666 -498 c0 -9 -43 -44 -95 -77 -618 -396 -1543 -682 -2575 -797 -755 -85 -2515 7 -2109 110 178 45 392 126 529 201 86 47 198 88 290 106 1225 241 2129 376 2900 434 480 36 1060 49 1060 23z"/> <path d="M7160 7091 c0 -18 40 -36 115 -52 63 -13 168 -45 233 -71 183 -74 230 -30 57 53 -188 89 -405 127 -405 70z"/> <path d="M8265 4115 c-11 -14 -39 -90 -62 -168 -111 -371 -405 -912 -667 -1228 -70 -85 -98 -159 -60 -159 71 0 438 553 614 925 191 403 297 784 175 630z"/> </g> </svg>
